<svg width="90" height="90" viewBox="0 0 90 90" fill="none" xmlns="http://www.w3.org/2000/svg">
<path d="M29.8438 38.6754C26.5104 38.6754 23.1771 38.6754 19.8438 38.6754C19.9115 40.5528 20.2388 42.4199 20.7941 44.1805C25.1617 55.8547 35.0622 62.0723 46.6883 62.7772C56.0372 62.481 66.3911 56.0846 67.2006 45.9442C68.5305 36.5528 59.4149 27.9379 50.7682 29.6433C49.2483 29.8491 47.7832 30.2684 46.4005 30.837C46.5924 31.3729 46.7843 31.9087 46.9762 32.4446C48.2852 32.049 49.6259 31.8069 50.958 31.757C58.573 31.1492 64.4612 38.6825 62.8251 45.3231C61.5769 52.5201 53.6406 56.357 46.6883 55.9433C39.5862 55.0893 31.2378 48.2561 30.0389 41.6479C29.8375 40.6513 29.7746 39.6604 29.8438 38.6754Z" fill="white"/>
<path d="M29.8438 38.6754C26.5104 38.6754 23.1771 38.6754 19.8438 38.6754C19.9115 40.5528 20.2388 42.4199 20.7941 44.1805C25.1617 55.8547 35.0622 62.0723 46.6883 62.7772C56.0372 62.481 66.3911 56.0846 67.2006 45.9442C68.5305 36.5528 59.4149 27.9379 50.7682 29.6433C49.2483 29.8491 47.7832 30.2684 46.4005 30.837C46.5924 31.3729 46.7843 31.9087 46.9762 32.4446C48.2852 32.049 49.6259 31.8069 50.958 31.757C58.573 31.1492 64.4612 38.6825 62.8251 45.3231C61.5769 52.5201 53.6406 56.357 46.6883 55.9433C39.5862 55.0893 31.2378 48.2561 30.0389 41.6479C29.8375 40.6513 29.7746 39.6604 29.8438 38.6754Z" fill="url(#paint0_linear_6320_843)"/>
<defs>
<linearGradient id="paint0_linear_6320_843" x1="32.7257" y1="53.5165" x2="61.1925" y2="55.2492" gradientUnits="userSpaceOnUse">
<stop stop-color="#AFAFAF"/>
<stop offset="1" stop-color="#AFAFAF" stop-opacity="0"/>
</linearGradient>
</defs>
</svg>
